<svg id="Layer_1" data-name="Layer 1" xmlns="http://www.w3.org/2000/svg" viewBox="0 0 72 72"><defs><style>.cls-1{fill:#fff;stroke:#ee3968;stroke-miterlimit:10;}.cls-2{fill:#ee3968;}</style></defs><title>face</title><circle class="cls-1" cx="36" cy="36" r="30.48"/><path class="cls-2" d="M44.33,45.54l-.58.74c-.14-.06-.26-.1-.38-.16a6.59,6.59,0,0,0-1.89-.65,7.44,7.44,0,0,0-4.67.61,1,1,0,0,1-1.22,0,6.9,6.9,0,0,0-3.91-.63A7,7,0,0,0,29,46.3l-.24.12c-.17-.07-.24-.23-.35-.36s-.18-.25-.27-.37A6.32,6.32,0,0,1,32,44.05a7.18,7.18,0,0,1,4.15,1l.35-.2a6.9,6.9,0,0,1,7.29.2c.13.09.25.18.37.28A1.07,1.07,0,0,1,44.33,45.54Z"/><path class="cls-2" d="M13.74,31.52A4.7,4.7,0,0,1,14,30.33l8.26,4.85a4.1,4.1,0,0,1-.2,1.1l-.09,0H21.9L21.45,36Z"/><path class="cls-2" d="M50.26,36.07A4.24,4.24,0,0,1,50,35l0-.07,0,0,.22-.13,8.06-4.15.16-.05a4.21,4.21,0,0,1,.22,1.07l0,.07,0,0-.22.13L50.42,36Z"/><path class="cls-2" d="M11.69,41.31a3.81,3.81,0,0,1,.2-1.07,1.85,1.85,0,0,1,.29-.08l3-.35,3.07-.37,2.87-.33h.27a3.28,3.28,0,0,1-.16,1c0,.13-.17.16-.29.17l-1.07.12-3.27.38-3.07.35-1.33.16A.77.77,0,0,1,11.69,41.31Z"/><path class="cls-2" d="M60.13,40.49l.18,1.13a.92.92,0,0,1-.25,0l-5.59-1-3.2-.55-.44-.1c0-.13-.06-.23-.08-.33,0-.25-.07-.5-.1-.78a2.73,2.73,0,0,1,.43,0l7.42,1.29Z"/><path class="cls-2" d="M59.51,36.61s-.07.07-.1.07L50.58,38a1.25,1.25,0,0,1-.12-.27c0-.25-.07-.51-.11-.77a1.27,1.27,0,0,1,.55-.16l6.67-1,1.38-.21a3.39,3.39,0,0,1,.43,0c0,.24.09.47.13.71A1.88,1.88,0,0,1,59.51,36.61Z"/><path class="cls-2" d="M21.81,37.18a3.35,3.35,0,0,1-.17,1l-.07,0h0l-8.47-1.77-.32-.09a4,4,0,0,1,.18-1.07c1,.17,2,.42,3,.61s2,.4,2.92.61S20.83,36.94,21.81,37.18Z"/><path class="cls-2" d="M39.24,32.57a1.43,1.43,0,0,1,.42-.89.78.78,0,0,1,1.19,0c.46.43.9.89,1.36,1.35a1.39,1.39,0,0,1-.46.53,2.7,2.7,0,0,1-.24-.19l-.8-.8a2.21,2.21,0,0,0-.27-.24.35.35,0,0,0-.39,0,.68.68,0,0,0-.37.63.43.43,0,0,0,.17.31l.84.84.24.27a2.5,2.5,0,0,1-.45.49c-.34-.25-2.18-2.07-2.62-2.58.13-.25.13-.25.44-.5C38.63,31.94,38.84,32.32,39.24,32.57Z"/><path class="cls-2" d="M32.29,33.15a.48.48,0,0,0-.6.12,3.75,3.75,0,0,1-.31.27,1.41,1.41,0,0,1-.48-.47c.25-.32,2.16-2.25,2.61-2.62a2.1,2.1,0,0,1,.49.46,2.25,2.25,0,0,1-.18.24l-1,1c-.07.07-.13.15-.23.27a1.08,1.08,0,0,0,.48,0l.46,0H34a2.59,2.59,0,0,1,.5.5s0,.07,0,.08l0,0-1.41.14c-.19.55-.14,1.15-.33,1.72-.27-.1-.39-.35-.61-.51Z"/><path class="cls-2" d="M43.73,29.94c-.21.27-.47.48-.69.72a5.47,5.47,0,0,0-.63.67c.5.33.9.09,1.27-.77l.24,0,.24.07a1.67,1.67,0,0,1-1.34,1.5,1.49,1.49,0,0,1-1.6-1.22,1.38,1.38,0,0,1,2.51-1Zm-.86.13a.62.62,0,0,0-.5-.12.76.76,0,0,0-.41.29.5.5,0,0,0,.06.7c.22-.19.42-.4.62-.61S42.78,30.18,42.87,30.07Z"/><path class="cls-2" d="M47.32,26.34c-.39.49-.9.87-1.29,1.37.49.34.9.09,1.26-.75a.83.83,0,0,1,.49.1,1.42,1.42,0,0,1-.43,1,1.42,1.42,0,0,1-2.53-.74A1.41,1.41,0,0,1,46,25.7,1.31,1.31,0,0,1,47,26,.75.75,0,0,1,47.32,26.34Zm-1.7,1a2.12,2.12,0,0,0,.8-.87.48.48,0,0,0-.43-.09.75.75,0,0,0-.41.29A.48.48,0,0,0,45.62,27.3Z"/><path class="cls-2" d="M26.85,27.87v.53a.62.62,0,0,1-.58,0,1.45,1.45,0,0,1,.27-2.8,1.36,1.36,0,0,1,1.18.39,1.25,1.25,0,0,1,.46,1.1,1.09,1.09,0,0,1-.59,0c0-.11-.06-.23-.11-.33a.73.73,0,0,0-.73-.47A.91.91,0,0,0,26,27a.69.69,0,0,0,.45.73C26.6,27.81,26.71,27.83,26.85,27.87Z"/><path class="cls-2" d="M32.11,31.12h-.53c0-.1,0-.19-.08-.28a.71.71,0,0,0-.83-.53.89.89,0,0,0-.67.76.73.73,0,0,0,.62.71l.14,0a.88.88,0,0,1,0,.59,1.31,1.31,0,0,1-1.36-.79,1.37,1.37,0,0,1,.3-1.65,1.4,1.4,0,0,1,1.66-.24A1.27,1.27,0,0,1,32.11,31.12Z"/><path class="cls-2" d="M29.56,26.45l.43.42a.61.61,0,0,1,0,.1.09.09,0,0,1,0,0l-2.44,2.45a.89.89,0,0,1-.14.09,1.66,1.66,0,0,1-.46-.46A32.79,32.79,0,0,1,29.56,26.45Z"/><path class="cls-2" d="M43,28.46l.37-.39a.22.22,0,0,1,.32,0c.14-.24.12-.54.38-.72a1.32,1.32,0,0,1,.47.44,1.2,1.2,0,0,0-.37.75,3.24,3.24,0,0,0,.6.66c.2.21.41.41.62.63a1.33,1.33,0,0,1-.46.53,7.11,7.11,0,0,1-1-.91C43.63,29.13,43.33,28.81,43,28.46Z"/><path class="cls-2" d="M29.83,28.18l.47.47a4.27,4.27,0,0,1-.6.65L29,30c-.21.2-.4.42-.63.61a1.48,1.48,0,0,1-.49-.47A22.08,22.08,0,0,1,29.83,28.18Z"/><path class="cls-2" d="M31,27.87a.42.42,0,0,1-.4.44.43.43,0,1,1,.4-.44Z"/></svg>