<svg id="Layer_1" data-name="Layer 1" xmlns="http://www.w3.org/2000/svg" viewBox="0 0 72 72"><defs><style>.cls-1{fill:#fff;stroke:#231f20;stroke-miterlimit:10;}</style></defs><title>face</title><circle class="cls-1" cx="36" cy="36" r="30.48"/><path d="M43.64,42.93l.56.72a6.69,6.69,0,0,1-8.07.57,6.86,6.86,0,0,1-4.22,1.17,6.94,6.94,0,0,1-3.64-1.32c-.24-.18-.26-.29-.06-.49a6.23,6.23,0,0,0,.41-.53,6.82,6.82,0,0,0,4.55.92,16.23,16.23,0,0,0,2.56-.79,1,1,0,0,1,.68,0A7.67,7.67,0,0,0,43.64,42.93Z"/><path d="M12.69,40.29l9.12-3.22a8.07,8.07,0,0,1,0,1,.48.48,0,0,1-.27.33l-8.61,3-.23,0Z"/><path d="M50.28,34.43c-.13-1.11-.13-1.12.84-1.47L59,30.14a.86.86,0,0,1,.2,0c.35.79.23,1.09-.52,1.36l-8.17,2.9A2,2,0,0,1,50.28,34.43Z"/><path d="M50.36,37.25l9.11,2.89v1.19l-2.73-.87-5.43-1.72C50.31,38.41,50.31,38.4,50.36,37.25Z"/><path d="M21.7,34.29l-5.18-1.64c-1.1-.35-2.2-.71-3.32-1-.51-.14-.76-.38-.65-.92a2.76,2.76,0,0,0,0-.49l4.59,1.45c1.33.42,2.64.86,4,1.25.46.13.67.33.58.81A3.78,3.78,0,0,0,21.7,34.29Z"/><path d="M21.69,35.26v1H12.61l-.06-1Z"/><path d="M50.31,36.27l-.1-1h9.13v1Z"/><path d="M38.17,30.52h-.72V26.81h.69V28c.2-.1.34-.18.48-.23a.93.93,0,0,1,1.37.93c0,.59,0,1.17,0,1.78h-.75c0-.48,0-1,0-1.43s0-.72-.56-.7-.54.3-.53.68S38.17,30,38.17,30.52Z"/><path d="M35.64,30.47c-1,.39-1.15-.48-1.69-1.11l-.28,1.14H33V26.81h.7v2c.65-.32.78-1.39,1.8-1a10.31,10.31,0,0,1-.72.83c-.27.26-.25.46,0,.73S35.36,30.11,35.64,30.47Z"/><path d="M48.13,30.21a1.69,1.69,0,0,1-2,0,1.43,1.43,0,0,1,1.21-2.49c.63.12,1,.7,1.06,1.59h-2c.31.64.54.74,1.15.56C48,29.77,48,29.77,48.13,30.21Zm-1.77-1.32h1.28c0-.38-.24-.58-.57-.6A.64.64,0,0,0,46.36,28.89Z"/><path d="M41.32,29.35a.66.66,0,0,0,1,.59c.27-.08.56-.29.72.15a1.42,1.42,0,0,1-1.74.33,1.54,1.54,0,0,1-.68-1.79,1.44,1.44,0,0,1,1.69-.87,1.3,1.3,0,0,1,.91,1.6Zm-.1-.66.11.19h1.23l.08-.17c-.24-.14-.48-.38-.73-.39S41.45,28.55,41.23,28.69Z"/><path d="M32.55,28.24l-.48.36a.78.78,0,0,0-1.16,0A.76.76,0,0,0,31,29.72a.74.74,0,0,0,1.06,0l.49.33a1.45,1.45,0,0,1-2.07.19,1.44,1.44,0,1,1,2.08-2Z"/><path d="M26.49,29.66l.37.42A1.41,1.41,0,0,1,25,30.3a1.48,1.48,0,0,1-.28-2,1.5,1.5,0,0,1,2.2-.09l-.39.44c-.42-.24-.87-.42-1.21.06a.79.79,0,0,0,.09,1.07C25.71,30.06,26.09,29.93,26.49,29.66Z"/><path d="M45.37,27.67v.66c-.84.18-.84.18-.84,1,0,.37,0,.74,0,1.14h-.75V27.72l.8.14,0,.14Z"/><path d="M28,30.52h-.58V26.8H28Z"/><path d="M28.85,27.77h.58v2.75l-.58,0Z"/><path d="M29.77,27c-.31.18-.49.37-.66.36s-.27-.25-.4-.39c.15-.14.29-.37.47-.4S29.47,26.81,29.77,27Z"/></svg>